<svg id="SvgjsSvg1062" xmlns="http://www.w3.org/2000/svg" version="1.1" xmlns:xlink="http://www.w3.org/1999/xlink" xmlns:svgjs="http://svgjs.com/svgjs" width="16" height="14"><defs id="SvgjsDefs1063"></defs><path id="SvgjsPath1064" d="M483.883 9777.52C485.154 9777.49 485.83099999999996 9777.960000000001 486.477 9778.550000000001C487.02599999999995 9778.500000000002 487.739 9778.19 488.159 9777.980000000001C488.295 9777.900000000001 488.431 9777.830000000002 488.568 9777.760000000002C488.328 9778.400000000001 488.002 9778.910000000002 487.502 9779.300000000003C487.392 9779.380000000003 487.281 9779.500000000004 487.142 9779.550000000003L487.142 9779.560000000003C487.854 9779.550000000003 488.442 9779.230000000003 489 9779.060000000003L489 9779.060000000003C488.707 9779.530000000002 488.31 9780.000000000004 487.887 9780.340000000004C487.716 9780.480000000003 487.545 9780.610000000004 487.374 9780.750000000004C487.384 9781.500000000004 487.363 9782.220000000003 487.22200000000004 9782.860000000004C486.40200000000004 9786.540000000005 484.23 9789.040000000005 480.79200000000003 9790.110000000004C479.557 9790.500000000004 477.562 9790.660000000003 476.14700000000005 9790.310000000005C475.446 9790.130000000005 474.81200000000007 9789.940000000004 474.21700000000004 9789.680000000006C473.88700000000006 9789.530000000006 473.581 9789.380000000006 473.28800000000007 9789.200000000006C473.19200000000006 9789.140000000007 473.09600000000006 9789.080000000005 473.00000000000006 9789.020000000006C473.3190000000001 9789.030000000006 473.69200000000006 9789.120000000006 474.04900000000004 9789.060000000007C474.372 9789.010000000007 474.68800000000005 9789.020000000006 474.98600000000005 9788.960000000006C475.72800000000007 9788.790000000006 476.38800000000003 9788.580000000007 476.9560000000001 9788.250000000007C477.23100000000005 9788.090000000007 477.64900000000006 9787.900000000007 477.8450000000001 9787.660000000007C477.47600000000006 9787.670000000007 477.1420000000001 9787.580000000007 476.8680000000001 9787.490000000007C475.8060000000001 9787.110000000008 475.1880000000001 9786.420000000007 474.7860000000001 9785.390000000007C475.1080000000001 9785.420000000007 476.0340000000001 9785.510000000007 476.2510000000001 9785.320000000007C475.8460000000001 9785.300000000007 475.4570000000001 9785.070000000007 475.1780000000001 9784.890000000007C474.3240000000001 9784.360000000006 473.6270000000001 9783.460000000006 473.6330000000001 9782.080000000007C473.7450000000001 9782.140000000007 473.8570000000001 9782.190000000008 473.9690000000001 9782.240000000007C474.1830000000001 9782.330000000007 474.4020000000001 9782.380000000006 474.65800000000013 9782.430000000008C474.76600000000013 9782.460000000008 474.98200000000014 9782.520000000008 475.1060000000001 9782.470000000008C475.1010000000001 9782.470000000008 475.0950000000001 9782.470000000008 475.0900000000001 9782.470000000008C474.92500000000007 9782.280000000008 474.6550000000001 9782.150000000009 474.4890000000001 9781.950000000008C473.9410000000001 9781.270000000008 473.4280000000001 9780.220000000008 473.7530000000001 9778.970000000008C473.8350000000001 9778.650000000009 473.9660000000001 9778.370000000008 474.1050000000001 9778.110000000008C474.11000000000007 9778.120000000008 474.1160000000001 9778.120000000008 474.1210000000001 9778.120000000008C474.1850000000001 9778.260000000007 474.3270000000001 9778.350000000008 474.4170000000001 9778.470000000008C474.69700000000006 9778.810000000009 475.04300000000006 9779.120000000008 475.39400000000006 9779.400000000009C476.5930000000001 9780.34000000001 477.67300000000006 9780.910000000009 479.40600000000006 9781.34000000001C479.84600000000006 9781.45000000001 480.3550000000001 9781.53000000001 480.88000000000005 9781.53000000001C480.732 9781.10000000001 480.78000000000003 9780.410000000009 480.8960000000001 9779.990000000009C481.18800000000005 9778.94000000001 481.8230000000001 9778.19000000001 482.7540000000001 9777.790000000008C482.97600000000006 9777.690000000008 483.22300000000007 9777.620000000008 483.4820000000001 9777.560000000009C483.6160000000001 9777.550000000008 483.7490000000001 9777.530000000008 483.8830000000001 9777.520000000008Z " fill="#000" transform="matrix(1,0,0,1,-473,-9777)"></path></svg>